<?xml version="1.0" encoding="UTF-8"?>
<svg id="objects" xmlns="http://www.w3.org/2000/svg" xmlns:xlink="http://www.w3.org/1999/xlink" viewBox="0 0 800 800">
  <defs>
    <style>
      .cls-1 {
        fill: #fff;
      }

      .cls-2 {
        fill: aqua;
      }

      .cls-3 {
        fill: #2cd6c9;
      }

      .cls-4 {
        fill: #38bdf8;
      }

      .cls-5 {
        fill: #ff5b41;
      }

      .cls-6 {
        fill: #756c6f;
      }

      .cls-7 {
        fill: #0f172a;
      }

      .cls-8 {
        fill: #33c4b6;
      }

      .cls-9 {
        clip-path: url(#clippath);
      }

      .cls-10 {
        fill: none;
      }

      .cls-11 {
        fill: #ffd66d;
      }
    </style>
    <clipPath id="clippath">
      <circle class="cls-10" cx="393.71" cy="350.25" r="298.08"/>
    </clipPath>
  </defs>
  <path class="cls-2" d="m400.11,56.02c39.7,0,78.21,7.77,114.47,23.11,35.02,14.81,66.47,36.02,93.48,63.03,27.01,27.01,48.21,58.46,63.03,93.48,15.33,36.25,23.11,74.77,23.11,114.47s-7.77,78.21-23.11,114.47c-14.81,35.02-36.02,66.47-63.03,93.48-27.01,27.01-58.46,48.21-93.48,63.03-36.25,15.33-74.77,23.11-114.47,23.11s-78.21-7.77-114.47-23.11c-35.02-14.81-66.47-36.02-93.48-63.03-27.01-27.01-48.21-58.46-63.03-93.48-15.33-36.25-23.11-74.77-23.11-114.47s7.77-78.21,23.11-114.47c14.81-35.02,36.02-66.47,63.03-93.48,27.01-27.01,58.46-48.21,93.48-63.03,36.25-15.33,74.77-23.11,114.47-23.11m0-4c-164.62,0-298.08,133.45-298.08,298.08s133.45,298.08,298.08,298.08,298.08-133.45,298.08-298.08S564.74,52.02,400.11,52.02h0Z"/>
  <g class="cls-9">
    <g>
      <line class="cls-6" x1="419" y1="-68.77" x2="431" y2="840.77"/>
      <line class="cls-6" x1="807.23" y1="403.06" x2="-41.23" y2="415.06"/>
    </g>
  </g>
  <g>
    <path class="cls-2" d="m126.28,450.63c.62-.53,94.53-95.57,95.06-96.03.53.78,62.76,61.94,63.3,62.66,0,0-1.6,0-1.6,0l53.17-53.72,1.06-1.07,1.08,1.07,45.96,45.49h-2.61l90.76-91.69,3.54,3.54-91.69,90.76-1.32,1.3-1.29-1.3-45.49-45.96h2.14l-53.72,53.17-.81.8-.79-.8-62.18-62.81h.97l-95.55,94.59h0Z"/>
    <g>
      <path class="cls-11" d="m475.89,345.97l-7.76-21.12-21.43-8.08s-24.36,1.47-34.16,34.05c0,0,6.37-5.21,10.86-7.36,0,0-13.59,21.34-10.84,36.95,15.15,2.3,36.72-11.07,36.72-11.07-2.15,4.49-7.59,10.63-7.59,10.63,32.58-9.8,34.2-34,34.2-34Zm-25.83,15.37s3.55-3.94,4.93-6.84c0,0-14.03,8.54-23.7,7.18-1.81-10.12,6.98-23.91,6.98-23.91-2.9,1.39-7.05,4.73-7.05,4.73,6.33-21.05,22.09-21.98,22.09-21.98l13.89,5.26,4.98,13.61s-1.07,15.62-22.12,21.96Z"/>
      <path class="cls-5" d="m467.2,325.77l-13.89-5.26s-15.76.93-22.09,21.98c0,0,4.14-3.34,7.05-4.73,0,0-8.79,13.78-6.98,23.91,9.67,1.36,23.7-7.18,23.7-7.18-1.38,2.9-4.93,6.84-4.93,6.84,21.05-6.33,22.12-21.96,22.12-21.96l-4.98-13.61Z"/>
    </g>
    <path class="cls-4" d="m528.08,312.12l-10.51,41.36-43.68,12.84s30.55-23.71,9.03-45.23l27-27.01,18.16,18.05Z"/>
    <path class="cls-4" d="m479.47,263.52l-41.36,10.51-12.84,43.68s23.71-30.56,45.24-9.03l27.01-27-18.05-18.16Z"/>
    <path class="cls-3" d="m514.7,278.41c7.25,7.25,16.63,14.13,28.64,19.03,19.4-22.1,33.5-46.36,43.12-66.34-6.39-2.41-11.37-5.94-15.15-9.74-4.7-4.7-7.61-9.78-9.37-13.7-.34-.76-.63-1.47-.89-2.13-19.98,9.62-44.25,23.71-66.37,43.11.66,1.57,1.48,3.38,2.48,5.38,3.45,6.87,9.03,15.88,17.53,24.38Z"/>
    <path class="cls-3" d="m574.07,218.61c3.51,3.51,8.09,6.75,14.08,8.96,10.54-22.54,15.16-38.82,15.16-38.82,0,0-16.23,4.6-38.71,15.11.25.67.56,1.42.91,2.21,1.61,3.6,4.29,8.27,8.56,12.54Z"/>
    <path class="cls-3" d="m511.95,281.17c-8.87-8.87-14.67-18.23-18.26-25.39-.8-1.59-1.48-3.06-2.06-4.4-19.1,17.35-36.35,38.77-47.46,64.82,0,0,3.68,10.1,12.17,18.6,8.5,8.5,19.52,13.09,19.52,13.09,26.01-11.09,47.41-28.3,64.74-47.37-11.93-5.08-21.34-12.05-28.65-19.36Z"/>
    <path class="cls-7" d="m571.31,221.37c3.79,3.8,8.76,7.33,15.15,9.74.57-1.19,1.14-2.37,1.68-3.54-5.99-2.2-10.56-5.45-14.08-8.96-4.27-4.27-6.95-8.94-8.56-12.54-.36-.8-.66-1.54-.91-2.21-1.16.54-2.34,1.1-3.53,1.68.26.66.55,1.37.89,2.13,1.75,3.92,4.67,9,9.37,13.7Z"/>
    <path class="cls-1" d="m511.95,281.17c7.31,7.31,16.71,14.27,28.65,19.36.93-1.02,1.84-2.05,2.75-3.08-12.01-4.91-21.39-11.78-28.64-19.03-8.5-8.5-14.08-17.51-17.53-24.38-1-2-1.82-3.81-2.48-5.38-1.03.9-2.05,1.81-3.07,2.74.59,1.34,1.27,2.81,2.06,4.4,3.59,7.16,9.39,16.52,18.26,25.39Z"/>
    <polygon class="cls-4" points="498.89 283.06 508.53 292.71 449.35 341.78 498.89 283.06"/>
    <g>
      <path class="cls-4" d="m548.03,257.82c-3.68,0-7.15-1.43-9.75-4.04-2.61-2.6-4.04-6.07-4.04-9.75s1.43-7.15,4.04-9.75c2.6-2.6,6.07-4.04,9.75-4.04s7.14,1.43,9.75,4.04c2.6,2.6,4.04,6.07,4.04,9.75s-1.43,7.15-4.04,9.75c-2.6,2.6-6.07,4.04-9.75,4.04Z"/>
      <path d="m548.03,230.74c3.55,0,6.89,1.38,9.39,3.89,2.51,2.51,3.89,5.85,3.89,9.4s-1.38,6.89-3.89,9.4c-2.51,2.51-5.85,3.89-9.39,3.89s-6.89-1.38-9.4-3.89c-2.51-2.51-3.89-5.85-3.89-9.4s1.38-6.89,3.89-9.4c2.51-2.51,5.85-3.89,9.4-3.89m0-1c-3.66,0-7.31,1.39-10.1,4.18-5.58,5.58-5.58,14.63,0,20.21,2.79,2.79,6.45,4.19,10.1,4.19s7.31-1.4,10.1-4.19c5.58-5.58,5.58-14.63,0-20.21-2.79-2.79-6.45-4.18-10.1-4.18h0Z"/>
    </g>
    <path class="cls-1" d="m548.03,259.94c-4.25,0-8.25-1.66-11.25-4.66-3-3-4.66-7-4.66-11.25s1.66-8.25,4.66-11.25c3.01-3.01,7-4.66,11.25-4.66s8.25,1.66,11.25,4.66c3.01,3.01,4.66,7,4.66,11.25s-1.66,8.25-4.66,11.25c-3,3.01-7,4.66-11.25,4.66Zm0-28.58c-3.38,0-6.56,1.32-8.96,3.71-2.39,2.39-3.71,5.57-3.71,8.96s1.32,6.56,3.71,8.96c2.39,2.39,5.57,3.71,8.96,3.71s6.56-1.32,8.95-3.71c2.39-2.39,3.71-5.57,3.71-8.96s-1.32-6.56-3.71-8.96c-2.39-2.39-5.57-3.71-8.95-3.71Z"/>
    <g>
      <path class="cls-8" d="m603.31,188.75l-.08.08v.14c.05-.14.08-.22.08-.22Z"/>
      <path class="cls-8" d="m602.93,189.27h-.16s-54.16,104.17-138.58,152.02l11.51,6.75c91.42-39,125.39-153.02,127.23-158.77Z"/>
    </g>
    <path class="cls-1" d="m107.2,388.91c23.72-.67,47.6-.67,71.33,0-23.73.67-47.6.67-71.33,0h0Z"/>
    <path class="cls-1" d="m264.53,388.91c11.96-.68,24.03-.68,36,0-11.97.68-24.03.68-36,0h0Z"/>
    <path class="cls-1" d="m419.19,388.91c65.68-.65,139.36-.66,205.04,0-65.68.66-139.36.65-205.04,0h0Z"/>
  </g>
</svg>